<?xml version="1.0" encoding="UTF-8" standalone="no"?>
<!-- Created with Inkscape (http://www.inkscape.org/) -->

<svg
   xmlns:dc="http://purl.org/dc/elements/1.1/"
   xmlns:cc="http://creativecommons.org/ns#"
   xmlns:rdf="http://www.w3.org/1999/02/22-rdf-syntax-ns#"
   xmlns:svg="http://www.w3.org/2000/svg"
   xmlns="http://www.w3.org/2000/svg"
   xmlns:sodipodi="http://sodipodi.sourceforge.net/DTD/sodipodi-0.dtd"
   xmlns:inkscape="http://www.inkscape.org/namespaces/inkscape"
   width="162.30345"
   height="150.05399"
   id="svg3962"
   version="1.1"
   inkscape:version="0.48.4 r9939"
   sodipodi:docname="New document 6">
  <defs
     id="defs3964" />
  <sodipodi:namedview
     id="base"
     pagecolor="#ffffff"
     bordercolor="#666666"
     borderopacity="1.0"
     inkscape:pageopacity="0.0"
     inkscape:pageshadow="2"
     inkscape:zoom="0.7"
     inkscape:cx="416.59175"
     inkscape:cy="-189.44536"
     inkscape:document-units="px"
     inkscape:current-layer="layer1"
     showgrid="false"
     fit-margin-top="0"
     fit-margin-left="0"
     fit-margin-right="0"
     fit-margin-bottom="0"
     inkscape:window-width="1006"
     inkscape:window-height="687"
     inkscape:window-x="26"
     inkscape:window-y="26"
     inkscape:window-maximized="0" />
  <metadata
     id="metadata3967">
    <rdf:RDF>
      <cc:Work
         rdf:about="">
        <dc:format>image/svg+xml</dc:format>
        <dc:type
           rdf:resource="http://purl.org/dc/dcmitype/StillImage" />
        <dc:title></dc:title>
      </cc:Work>
    </rdf:RDF>
  </metadata>
  <g
     inkscape:label="Layer 1"
     inkscape:groupmode="layer"
     id="layer1"
     transform="translate(1.86602,1.24023)">
    <g
       id="g4007"
       transform="translate(-295.71429,-458.57143)">
      <path
         d="m 494.26765,331.46683 c 0,39.63821 -32.13313,71.77134 -71.77134,71.77134 -39.63822,0 -71.77134,-32.13313 -71.77134,-71.77134 0,-39.63822 32.13312,-71.77134 71.77134,-71.77134 39.63821,0 71.77134,32.13312 71.77134,71.77134 z"
         sodipodi:ry="71.771339"
         sodipodi:rx="71.771339"
         sodipodi:cy="331.46683"
         sodipodi:cx="422.49631"
         id="path3900"
         style="fill:none;stroke:#daaf76;stroke-opacity:1"
         sodipodi:type="arc"
         transform="translate(-48.943969,198.1437)" />
      <path
         sodipodi:nodetypes="ccccc"
         inkscape:connector-curvature="0"
         id="path3904"
         d="m 315.66734,542.91634 c -3.46521,8.10753 -3.4544,8.30757 -3.18198,14.49569 0.093,7.99614 2.16404,13.61313 6.71752,19.79899 1.9621,-6.59798 3.37219,-11.82641 2.43198,-18.73465 -0.20925,-1.3619 -0.70385,-10.03511 -5.96752,-15.56003 z"
         style="fill:#97c69a;fill-opacity:1;stroke:none" />
      <path
         style="fill:#97c69a;fill-opacity:1;stroke:none"
         d="m 293.84827,528.33509 c 0.13414,6.92898 0.19487,7.06858 2.03657,11.40718 2.22537,5.69059 4.98444,9.03487 9.37796,11.97775 -0.62066,-5.3595 -1.19879,-9.55938 -3.63405,-14.19573 -0.49435,-0.90624 -3.1429,-6.95046 -7.78048,-9.1892 z"
         id="path3906"
         inkscape:connector-curvature="0"
         sodipodi:nodetypes="ccccc" />
      <path
         style="fill:#97c69a;fill-opacity:1;stroke:none"
         d="m 330.96907,559.05848 c -2.95236,6.85379 -2.94315,7.0229 -2.71105,12.25409 0.0792,6.75962 1.84376,11.50801 5.72333,16.73729 1.67171,-5.57767 2.8731,-9.99758 2.07205,-15.83754 -0.17829,-1.1513 -0.59968,-8.48329 -5.08433,-13.15384 z"
         id="path3908"
         inkscape:connector-curvature="0"
         sodipodi:nodetypes="ccccc" />
      <path
         sodipodi:nodetypes="ccccc"
         inkscape:connector-curvature="0"
         id="path3910"
         d="m 432.63376,542.32554 c -5.14494,6.63381 -5.1697,6.81226 -6.0018,12.32277 -1.35004,7.08085 -0.17056,12.36238 3.53934,18.52721 3.27686,-5.53017 5.71998,-9.93463 5.97414,-16.18394 0.0248,-1.23566 1.07136,-8.97644 -3.51168,-14.66604 z"
         style="fill:#97c69a;fill-opacity:1;stroke:none" />
      <path
         style="fill:#97c69a;fill-opacity:1;stroke:none"
         d="m 455.94465,524.2585 c -5.86393,3.03081 -5.94448,3.15391 -8.47803,6.93008 -3.44621,4.74963 -4.53173,9.09186 -4.2142,15.01353 4.20095,-2.89673 7.43355,-5.26477 9.83847,-9.79937 0.45822,-0.90593 3.93406,-6.25518 2.85376,-12.14424 z"
         id="path3912"
         inkscape:connector-curvature="0"
         sodipodi:nodetypes="ccccc" />
      <path
         style="fill:#97c69a;fill-opacity:1;stroke:none"
         d="m 439.45552,593.96735 c -6.82664,-4.88618 -7.00591,-4.90407 -12.54433,-5.52377 -7.12751,-1.0769 -12.3598,0.30469 -18.3775,4.24878 5.65202,3.0619 10.14713,5.33394 16.40159,5.34773 1.2357,-0.0227 9.01098,0.72558 14.52024,-4.07274 z"
         id="path3914"
         inkscape:connector-curvature="0"
         sodipodi:nodetypes="ccccc" />
      <path
         sodipodi:nodetypes="ccccc"
         inkscape:connector-curvature="0"
         id="path3916"
         d="m 419.77181,556.66867 c -5.07325,6.68878 -5.09609,6.8675 -5.86884,12.38664 -1.27376,7.09498 -0.0375,12.3635 3.7385,18.48805 3.21717,-5.56511 5.61274,-9.9956 5.79964,-16.24728 0.0115,-1.23587 0.97467,-8.98745 -3.6693,-14.62741 z"
         style="fill:#97c69a;fill-opacity:1;stroke:none" />
      <path
         style="fill:#82a486;fill-opacity:1;stroke:none"
         d="m 405.81465,556.65966 c -2.28071,8.42356 -2.22548,8.60279 -0.58901,14.16524 1.8147,7.26465 5.41147,11.77176 12.00347,16.06003 0.86288,-6.60024 1.37907,-11.78743 -1.18418,-17.80819 -0.53295,-1.17988 -2.95724,-8.94259 -10.23028,-12.41708 z"
         id="path3918"
         inkscape:connector-curvature="0"
         sodipodi:nodetypes="ccccc" />
      <path
         sodipodi:nodetypes="ccccc"
         inkscape:connector-curvature="0"
         id="path3920"
         d="m 452.99289,575.73971 c -7.56415,-3.47038 -7.74117,-3.4461 -13.22332,-2.76624 -7.10976,0.58292 -11.90385,3.281 -16.95662,8.84547 6.07012,1.84533 10.86581,3.14246 16.92242,1.65773 1.19166,-0.31994 8.86408,-1.40159 13.25752,-7.73696 z"
         style="fill:#82a486;fill-opacity:1;stroke:none" />
      <path
         style="fill:#82a486;fill-opacity:1;stroke:none"
         d="m 447.7365,550.41289 c -7.32914,2.28042 -7.43645,2.40885 -10.80368,6.33513 -4.54878,4.87936 -6.2131,9.80971 -6.31127,16.94217 5.30966,-2.49861 9.4067,-4.58703 12.68025,-9.44677 0.62716,-0.97597 5.26046,-6.56353 4.4347,-13.83053 z"
         id="path3922"
         inkscape:connector-curvature="0"
         sodipodi:nodetypes="ccccc" />
      <path
         sodipodi:nodetypes="ccccc"
         inkscape:connector-curvature="0"
         id="path3924"
         d="m 343.21382,559.8091 c -7.00719,5.24253 -7.07388,5.41604 -9.20539,10.75515 -3.03992,6.78028 -2.96365,12.46289 -0.37371,19.76319 4.75652,-4.65981 8.36613,-8.41875 10.0443,-14.67082 0.30453,-1.24354 3.16757,-8.77848 -0.4652,-15.84752 z"
         style="fill:#82a486;fill-opacity:1;stroke:none" />
      <path
         style="fill:#82a486;fill-opacity:1;stroke:none"
         d="m 325.03247,581.31584 c -5.71094,-6.06729 -5.8844,-6.11375 -11.22919,-7.6174 -6.81886,-2.22068 -12.28668,-1.63049 -19.07633,1.45568 4.93754,4.01796 8.89911,7.04674 15.08081,8.04352 1.22678,0.17092 8.75609,2.15745 15.22471,-1.88179 z"
         id="path3926"
         inkscape:connector-curvature="0"
         sodipodi:nodetypes="ccccc" />
      <path
         sodipodi:nodetypes="ccccc"
         inkscape:connector-curvature="0"
         id="path3928"
         d="m 317.70018,575.02945 c -0.4956,-8.31753 -0.59899,-8.46436 -3.73824,-13.04397 -3.81129,-6.07472 -8.38688,-9.12585 -15.57677,-11.10808 1.21527,6.24871 2.31529,11.11261 6.42183,15.83948 0.8322,0.91742 5.33892,7.26771 12.89318,8.31258 z"
         style="fill:#82a486;fill-opacity:1;stroke:none" />
      <path
         sodipodi:nodetypes="ccccc"
         inkscape:connector-curvature="0"
         id="path3930"
         d="m 338.81199,593.39209 c -6.33634,-4.56658 -6.50484,-4.57884 -11.7092,-5.02379 -6.69227,-0.84488 -11.64641,0.65212 -17.38909,4.66943 5.26484,2.82213 9.45511,4.90761 15.34538,4.74138 1.16423,-0.0577 8.47283,0.44833 13.75291,-4.38702 z"
         style="fill:#97c69a;fill-opacity:1;stroke:none" />
      <path
         transform="matrix(0.13179175,-0.00309537,0.00311672,0.13088897,290.77487,589.75758)"
         inkscape:transform-center-y="-0.65131779"
         inkscape:transform-center-x="-0.0036150467"
         d="m 651.95245,150.09393 -30.36181,-16.95747 -31.18175,15.39789 6.74521,-34.11596 -24.27996,-24.897386 34.53059,-4.127341 16.1759,-30.785322 14.59587,31.565116 34.27721,5.871013 -25.50983,23.63566 z"
         inkscape:randomized="0"
         inkscape:rounded="0"
         inkscape:flatsided="false"
         sodipodi:arg2="1.5961321"
         sodipodi:arg1="0.96781357"
         sodipodi:r2="26.184441"
         sodipodi:r1="52.368885"
         sodipodi:cy="106.96042"
         sodipodi:cx="622.25397"
         sodipodi:sides="5"
         id="path3934"
         style="fill:#ffd081;fill-opacity:1;stroke:none"
         sodipodi:type="star" />
    </g>
  </g>
</svg>
