<?xml version="1.0" encoding="UTF-8" standalone="no"?>
<!-- Created with Inkscape (http://www.inkscape.org/) -->

<svg
   xmlns:dc="http://purl.org/dc/elements/1.1/"
   xmlns:cc="http://creativecommons.org/ns#"
   xmlns:rdf="http://www.w3.org/1999/02/22-rdf-syntax-ns#"
   xmlns:svg="http://www.w3.org/2000/svg"
   xmlns="http://www.w3.org/2000/svg"
   xmlns:sodipodi="http://sodipodi.sourceforge.net/DTD/sodipodi-0.dtd"
   xmlns:inkscape="http://www.inkscape.org/namespaces/inkscape"
   width="467.76846"
   height="433.54468"
   id="svg4071"
   version="1.1"
   inkscape:version="0.48.4 r9939"
   sodipodi:docname="New document 10">
  <defs
     id="defs4073" />
  <sodipodi:namedview
     id="base"
     pagecolor="#ffffff"
     bordercolor="#666666"
     borderopacity="1.0"
     inkscape:pageopacity="0.0"
     inkscape:pageshadow="2"
     inkscape:zoom="0.35"
     inkscape:cx="374.5985"
     inkscape:cy="-97.513381"
     inkscape:document-units="px"
     inkscape:current-layer="layer1"
     showgrid="false"
     fit-margin-top="0"
     fit-margin-left="0"
     fit-margin-right="0"
     fit-margin-bottom="0"
     inkscape:window-width="1858"
     inkscape:window-height="1057"
     inkscape:window-x="-8"
     inkscape:window-y="-8"
     inkscape:window-maximized="1" />
  <metadata
     id="metadata4076">
    <rdf:RDF>
      <cc:Work
         rdf:about="">
        <dc:format>image/svg+xml</dc:format>
        <dc:type
           rdf:resource="http://purl.org/dc/dcmitype/StillImage" />
        <dc:title></dc:title>
      </cc:Work>
    </rdf:RDF>
  </metadata>
  <g
     inkscape:label="Layer 1"
     inkscape:groupmode="layer"
     id="layer1"
     transform="translate(-0.40150353,-1.3041394)">
    <path
       style="fill:#e8f7dd"
       d="m 194.90206,433.24901 c 7.4988,-28.1502 10.0407,-57.35669 6.8401,-86.31346 0.7191,-17.15125 1.7908,-29.57449 -17.2755,-30.57171 -13.5412,-5.00466 -23.7562,-21.36728 -38.4041,-9.31863 -35.2833,10.12031 -75.666703,-14.81436 -81.699803,-51.29473 -2.6892,-8.88556 -17.5985,-3.7782 -25.0512,-9.61193 C 9.5958571,234.78567 -6.8275429,198.79566 3.4929571,168.78387 11.902257,141.60191 40.609957,122.22507 69.017657,125.75064 c -0.399,-32.888664 25.686,-63.151624 58.577703,-66.773324 -3.9205,-18.58195 7.1218,-39.13757 26.0147,-43.76044 6.6915,-3.10454 14.5969,1.05084 20.709,-1.76789 9.8416,-7.2035703 22.7944,-9.3411803 34.0081,-11.0647203 4.9885,-0.59284 17.2312,-3.11387999 16.428,2.47936 18.13936,3.56371 32.53424,16.2630503 43.12622,30.6885803 11.31103,-19.25961 38.63197,-26.2670403 57.51943,-14.02611 11.7406,5.55664 14.45651,19.51517 24.8634,26.51184 10.21601,14.28637 15.15871,29.16511 35.68869,29.16873 25.52733,11.29723 41.28895,39.722484 38.32563,67.261524 9.63771,6.36488 21.20531,12.75927 26.92867,22.82116 21.05449,16.62652 22.67335,51.05693 3.93704,70.09548 -9.78551,10.43367 -24.11627,15.56692 -38.29233,15.40326 -13.70919,10.90339 -28.94222,15.31942 -29.07431,35.74737 -10.68426,25.11287 -38.02974,41.28022 -65.08963,39.1142 -12.86656,3.57432 -26.27242,-14.14854 -35.99897,-8.41014 -7.82007,10.27134 -21.36338,17.55308 -25.95166,29.55325 -5.89869,26.72803 -5.94455,54.51634 1.34894,80.97563 2.73876,9.27941 -14.35238,2.60003 -20.65364,4.61946 -15.62988,0 -31.25978,0 -46.88978,0 z M 254.3873,35.537446 c -1.29319,-1.81581 -1.29319,1.81581 0,0 z"
       id="path4051"
       inkscape:connector-curvature="0"
       sodipodi:nodetypes="ccccccccccccccccccccccccccccccc" />
  </g>
</svg>
